#!OML:ASF E:\emotionWalksFemale\Project 1\Capture day 1\Session 1\Female1.ASF
:FULLY-SPECIFIED
:DEGREES
21
root 7.74999 15.5568 22.4134 -178.081 3.7945 -179.392
lowerback 8.4214 1.77474 0.947943
upperback -4.89246 2.61164 0.0371429
thorax -9.9146 1.24124 -0.939287
lowerneck -4.279 -2.96785 -7.32131
upperneck 1.20103 -3.79859 7.24721
head 1.45834 -1.84611 3.56691
rclavicle 1.47365e-014 4.27387e-015
rhumerus -50.6399 13.8199 -99.1224
rradius 37.3597
rwrist 15.7885
rhand -3.24637 -55.806
rfingers 7.12502
rthumb 22.4775 -84.5178
lclavicle 1.47365e-014 4.27387e-015
lhumerus -49.0524 -5.65059 91.7236
lradius 36.1204
lwrist -8.49573
lhand -0.86899 -33.6616
lfingers 7.12502
lthumb 24.7578 -5.24389
rfemur 0.112614 21.5639 26.0938
rtibia 11.8482
rfoot -14.7577 -34.5429
rtoes 6.42127
lfemur -5.99475 -25.0636 -23.1864
ltibia 21.3258
lfoot -23.1868 20.5718
ltoes -11.4916
22
root 7.75295 15.5594 22.4109 -178.004 3.75931 -179.374
lowerback 8.37156 1.80476 0.92616
upperback -4.8811 2.65245 0.0775597
thorax -9.87465 1.26475 -0.888534
lowerneck -4.38091 -3.00283 -7.31052
upperneck 1.2234 -3.83345 7.10681
head 1.48234 -1.86266 3.51351
rclavicle -1.65814e-014 -2.36057e-015
rhumerus -50.5924 13.838 -99.0546
rradius 37.4322
rwrist 15.5194
rhand -3.02849 -56.1247
rfingers 7.12502
rthumb 22.6866 -84.8112
lclavicle -1.65814e-014 -2.36057e-015
lhumerus -48.9961 -5.59437 91.7437
lradius 36.0547
lwrist -8.59678
lhand -1.07492 -33.8732
lfingers 7.12502
lthumb 24.5604 -5.42854
rfemur 0.0791244 21.5865 26.0961
rtibia 11.7865
rfoot -14.7218 -34.5555
rtoes 6.28292
lfemur -6.09541 -25.1046 -23.1287
ltibia 21.3497
lfoot -23.1213 20.6605
ltoes -12.2665
23
root 7.75534 15.5573 22.4062 -178.033 3.6347 -179.44
lowerback 8.30562 1.82553 0.897094
upperback -4.78369 2.66721 0.0560721
thorax -9.72786 1.27286 -0.892091
lowerneck -4.53442 -3.03797 -7.34003
upperneck 1.24774 -3.87042 7.10907
head 1.52198 -1.87888 3.51733
rclavicle 8.84126e-015 4.44781e-015
rhumerus -50.5425 13.8116 -98.9884
rradius 37.5075
rwrist 15.766
rhand -3.07763 -56.1165
rfingers 7.12502
rthumb 22.6395 -84.8087
lclavicle 8.84126e-015 4.44781e-015
lhumerus -48.789 -5.5458 91.7012
lradius 35.9071
lwrist -8.78967
lhand -1.40975 -34.2841
lfingers 7.12502
lthumb 24.2394 -5.79618
rfemur 0.17844 21.5757 26.0519
rtibia 11.7123
rfoot -14.7896 -34.649
rtoes 6.24929
lfemur -6.08629 -25.1481 -23.205
ltibia 21.3806
lfoot -22.98 20.607
ltoes -12.7696
24
root 7.75781 15.5563 22.4033 -178.059 3.49453 -179.489
lowerback 8.31014 1.83396 0.896909
upperback -4.7326 2.67124 0.0190206
thorax -9.67229 1.27278 -0.930731
lowerneck -4.50977 -3.06711 -7.38669
upperneck 1.13424 -3.90908 7.2006
head 1.48763 -1.89848 3.55715
rclavicle -2.13026e-014 -6.36111e-015
rhumerus -50.5391 13.8051 -98.9846
rradius 37.6062
rwrist 16.1317
rhand -2.99227 -56.1896
rfingers 7.12502
rthumb 22.7214 -84.8718
lclavicle -2.13026e-014 -6.36111e-015
lhumerus -48.7405 -5.57605 91.6996
lradius 35.9148
lwrist -8.79541
lhand -1.78911 -34.299
lfingers 7.12502
lthumb 23.8757 -5.76306
rfemur 0.239517 21.5188 26.024
rtibia 11.6673
rfoot -14.8005 -34.7513
rtoes 6.18048
lfemur -6.08553 -25.1909 -23.2551
ltibia 21.4134
lfoot -22.8616 20.5665
ltoes -13.4108
25
root 7.76064 15.5569 22.4021 -178.089 3.22804 -179.493
lowerback 8.40071 1.78142 0.929675
upperback -4.7394 2.60412 0.00524647
thorax -9.73261 1.23649 -0.956478
lowerneck -4.37704 -3.07492 -7.39376
upperneck 0.992499 -3.9247 7.24431
head 1.42005 -1.90851 3.57444
rclavicle -1.98676e-014 -5.96354e-015
rhumerus -50.5743 13.9315 -99.0856
rradius 37.6237
rwrist 16.0951
rhand -2.55035 -56.4492
rfingers 7.12502
rthumb 23.1454 -85.0787
lclavicle -1.98676e-014 -5.96354e-015
lhumerus -48.8407 -5.60258 91.7175
lradius 36.0225
lwrist -8.67827
lhand -1.62237 -33.8521
lfingers 7.12502
lthumb 24.0355 -5.33717
rfemur 0.339456 21.5412 26.0944
rtibia 11.649
rfoot -15.0018 -34.9856
rtoes 6.85764
lfemur -6.086 -25.2066 -23.2328
ltibia 21.4257
lfoot -22.783 20.4558
ltoes -13.772
26
root 7.76581 15.5542 22.3975 -178.24 2.68383 -179.501
lowerback 8.50371 1.6426 0.954998
upperback -4.68417 2.41707 0.00680207
thorax -9.73534 1.1426 -0.940324
lowerneck -4.24768 -3.05371 -7.45862
upperneck 0.893244 -3.90076 7.33308
head 1.36685 -1.89834 3.62031
rclavicle 4.01452e-015 -4.42296e-015
rhumerus -50.6496 14.0991 -99.2206
rradius 37.617
rwrist 15.8959
rhand -2.45397 -56.474
rfingers 7.12502
rthumb 23.2379 -85.0919
lclavicle 4.01452e-015 -4.42296e-015
lhumerus -48.9112 -5.62698 91.7256
lradius 36.0934
lwrist -8.56012
lhand -0.950396 -33.3378
lfingers 7.12502
lthumb 24.6798 -4.90934
rfemur 0.700172 21.6527 26.2958
rtibia 11.5419
rfoot -15.4152 -35.5372
rtoes 7.87834
lfemur -5.98723 -25.2413 -23.2328
ltibia 21.4803
lfoot -22.6555 20.015
ltoes -13.7083
27
root 7.76532 15.5597 22.4031 -178.015 3.3335 -179.432
lowerback 8.46785 1.89907 0.987153
upperback -4.77178 2.77239 0.00634437
thorax -9.80246 1.31361 -1.01903
lowerneck -4.16123 -3.0225 -7.5657
upperneck 0.90311 -3.86661 7.52099
head 1.36034 -1.88167 3.70945
rclavicle 7.33018e-016 1.90088e-015
rhumerus -50.7395 14.0763 -99.2799
rradius 37.5924
rwrist 15.9615
rhand -2.59654 -56.2221
rfingers 7.12502
rthumb 23.1011 -84.8572
lclavicle 7.33018e-016 1.90088e-015
lhumerus -48.9697 -5.71431 91.7361
lradius 36.104
lwrist -8.33639
lhand -0.68182 -33.1437
lfingers 7.12502
lthumb 24.9371 -4.75076
rfemur 0.33409 21.4541 26.1151
rtibia 11.3971
rfoot -14.5324 -34.8374
rtoes 6.0966
lfemur -6.22627 -25.1 -23.1231
ltibia 21.54
lfoot -22.8447 20.3779
ltoes -13.1227
28
root 7.76805 15.5593 22.401 -177.97 3.14738 -179.354
lowerback 8.44657 1.86146 1.07364
upperback -4.77428 2.73432 0.0184634
thorax -9.79001 1.29046 -1.04742
lowerneck -4.18159 -3.02077 -7.50304
upperneck 0.974797 -3.86917 7.51368
head 1.38569 -1.88237 3.69434
rclavicle -6.87515e-015 -2.08724e-015
rhumerus -50.7494 14.0401 -99.3335
rradius 37.537
rwrist 16.0824
rhand -2.45978 -56.1347
rfingers 7.12502
rthumb 23.2323 -84.7534
lclavicle -6.87515e-015 -2.08724e-015
lhumerus -48.9605 -5.75761 91.7133
lradius 36.0462
lwrist -8.09604
lhand -0.858164 -33.2775
lfingers 7.12502
lthumb 24.7682 -4.86116
rfemur 0.380957 21.5046 26.2343
rtibia 11.292
rfoot -14.4015 -35.0768
rtoes 5.75448
lfemur -6.30765 -25.0487 -22.9911
ltibia 21.5798
lfoot -22.7305 20.2628
ltoes -14.0041
29
root 7.7702 15.5611 22.399 -177.907 3.09441 -179.359
lowerback 8.3941 1.87294 1.07105
upperback -4.74987 2.74736 0.0167953
thorax -9.73167 1.29748 -1.04701
lowerneck -4.19737 -3.05417 -7.44311
upperneck 0.869748 -3.90853 7.41483
head 1.35278 -1.90267 3.64624
rclavicle 6.92873e-015 -1.88845e-015
rhumerus -50.6828 14.1603 -99.4102
rradius 37.5675
rwrist 15.9466
rhand -2.2376 -56.2329
rfingers 7.12502
rthumb 23.4455 -84.8244
lclavicle 6.92873e-015 -1.88845e-015
lhumerus -48.8885 -5.76917 91.7147
lradius 36.0277
lwrist -7.86186
lhand -0.996594 -33.3281
lfingers 7.12502
lthumb 24.6355 -4.89361
rfemur 0.351124 21.5041 26.2131
rtibia 11.2306
rfoot -14.4423 -35.0956
rtoes 5.92352
lfemur -6.38045 -25.0077 -22.9616
ltibia 21.582
lfoot -22.6816 20.2334
ltoes -14.4342
30
root 7.7727 15.5626 22.3978 -177.819 2.97475 -179.423
lowerback 8.31623 1.87544 1.0242
upperback -4.72815 2.74094 -0.00598703
thorax -9.66262 1.29747 -1.04013
lowerneck -4.08745 -3.11148 -7.43155
upperneck 0.590595 -3.9807 7.34768
head 1.24544 -1.9419 3.61915
rclavicle -2.82911e-014 -3.73964e-015
rhumerus -50.5746 14.1919 -99.4206
rradius 37.5534
rwrist 15.8868
rhand -2.33117 -56.0851
rfingers 7.12502
rthumb 23.3557 -84.6881
lclavicle -2.82911e-014 -3.73964e-015
lhumerus -48.8 -5.73895 91.7067
lradius 36.0261
lwrist -7.69861
lhand -1.04009 -33.4685
lfingers 7.12502
lthumb 24.5938 -5.02837
rfemur 0.289771 21.4583 26.1214
rtibia 11.2006
rfoot -14.6995 -35.0801
rtoes 6.66956
lfemur -6.50059 -25.0753 -22.9655
ltibia 21.5783
lfoot -22.6515 20.1559
ltoes -14.3946
31
root 7.77554 15.5626 22.3977 -177.734 2.84134 -179.451
lowerback 8.26441 1.85581 0.993536
upperback -4.71908 2.70985 -0.00784132
thorax -9.62383 1.28502 -1.01749
lowerneck -4.051 -3.14993 -7.3897
upperneck 0.455883 -4.02886 7.25583
head 1.19496 -1.96749 3.57772
rclavicle 1.88333e-014 1.98785e-015
rhumerus -50.4723 14.1771 -99.397
rradius 37.5168
rwrist 15.8346
rhand -2.62276 -55.8521
rfingers 7.12502
rthumb 23.076 -84.4904
lclavicle 1.88333e-014 1.98785e-015
lhumerus -48.7315 -5.65975 91.6629
lradius 36.0141
lwrist -7.56655
lhand -0.98827 -33.637
lfingers 7.12502
lthumb 24.6435 -5.2036
rfemur 0.217255 21.3937 26.0796
rtibia 11.2203
rfoot -14.8052 -35.0997
rtoes 6.89263
lfemur -6.61199 -25.1572 -22.9248
ltibia 21.5559
lfoot -22.5828 20.0915
ltoes -14.1109
32
root 7.77785 15.5631 22.3967 -177.73 2.74297 -179.481
lowerback 8.29711 1.83746 0.97439
upperback -4.69027 2.68075 -0.00742662
thorax -9.61294 1.27148 -1.00204
lowerneck -4.12242 -3.17323 -7.3883
upperneck 0.449306 -4.05498 7.23307
head 1.20702 -1.9797 3.5678
rclavicle 2.88517e-014 -1.26725e-015
rhumerus -50.4306 14.2172 -99.3928
rradius 37.5971
rwrist 15.6576
rhand -2.58705 -55.9617
rfingers 7.12502
rthumb 23.1102 -84.5957
lclavicle 2.88517e-014 -1.26725e-015
lhumerus -48.7186 -5.66674 91.6626
lradius 36.07
lwrist -7.3205
lhand -0.965643 -33.6329
lfingers 7.12502
lthumb 24.6651 -5.20248
rfemur 0.222979 21.3773 26.0648
rtibia 11.2388
rfoot -14.833 -35.1623
rtoes 6.85663
lfemur -6.62101 -25.2536 -22.9428
ltibia 21.5373
lfoot -22.5039 20.1478
ltoes -14.2072
